<svg width="180" height="52" viewBox="0 0 180 52" fill="none" xmlns="http://www.w3.org/2000/svg">
<path d="M178.5 46.0029C178.5 48.4879 176.443 50.5187 173.874 50.5187H6.13243C3.56458 50.5187 1.5 48.4869 1.5 46.0029V6.00333C1.5 3.51965 3.56552 1.48096 6.13243 1.48096H173.873C176.441 1.48096 178.499 3.51864 178.499 6.00333L178.5 46.0029Z" fill="url(#paint0_linear_200_258)" stroke="#474747"/>
<path d="M40.1705 25.7191C40.1318 21.5292 43.6891 19.4908 43.8518 19.3959C41.8371 16.532 38.7145 16.1407 37.6171 16.1095C34.9945 15.8404 32.4505 17.6396 31.1145 17.6396C29.7518 17.6396 27.6945 16.1355 25.4771 16.1797C22.6238 16.2226 19.9545 17.8333 18.4905 20.3345C15.4691 25.4344 17.7225 32.9289 20.6171 37.0512C22.0651 39.0701 23.7571 41.3243 25.9718 41.245C28.1385 41.1579 28.9478 39.8982 31.5625 39.8982C34.1531 39.8982 34.9131 41.245 37.1718 41.1943C39.4971 41.1579 40.9611 39.1663 42.3585 37.1292C44.0318 34.8152 44.7038 32.5363 44.7305 32.4193C44.6758 32.4011 40.2145 30.741 40.1705 25.7191Z" fill="white"/>
<path d="M35.9038 13.3977C37.0691 11.9768 37.8665 10.0437 37.6451 8.08203C35.9585 8.15483 33.8491 9.21953 32.6345 10.6092C31.5598 11.8338 30.5998 13.841 30.8478 15.7286C32.7425 15.8664 34.6878 14.7965 35.9038 13.3977Z" fill="white"/>
<path d="M65.3997 13.0113C65.3997 14.5414 64.9291 15.6932 63.989 16.4667C63.1184 17.1804 61.881 17.5379 60.2784 17.5379C59.4837 17.5379 58.8037 17.5041 58.2344 17.4365V9.07621C58.977 8.95921 59.777 8.89941 60.641 8.89941C62.1677 8.89941 63.3184 9.22311 64.0944 9.87051C64.9637 10.6024 65.3997 11.6489 65.3997 13.0113ZM63.9264 13.049C63.9264 12.0571 63.657 11.2966 63.1184 10.7662C62.5797 10.2371 61.793 9.97191 60.757 9.97191C60.317 9.97191 59.9424 10.0005 59.6317 10.0603V16.416C59.8037 16.442 60.1184 16.4537 60.5757 16.4537C61.645 16.4537 62.4704 16.1638 63.0517 15.584C63.6331 15.0042 63.9264 14.1592 63.9264 13.049Z" fill="white"/>
<path d="M73.2117 14.3477C73.2117 15.2902 72.9357 16.0624 72.3837 16.6682C71.805 17.2909 71.0383 17.6016 70.081 17.6016C69.1583 17.6016 68.4237 17.3039 67.8757 16.7059C67.329 16.1092 67.0557 15.3565 67.0557 14.4491C67.0557 13.5001 67.337 12.7214 67.9023 12.1169C68.4677 11.5124 69.2277 11.2095 70.185 11.2095C71.1077 11.2095 71.849 11.5072 72.4103 12.1039C72.9437 12.6837 73.2117 13.4325 73.2117 14.3477ZM71.7623 14.3919C71.7623 13.8264 71.637 13.3415 71.3877 12.9372C71.0943 12.4484 70.677 12.204 70.1343 12.204C69.573 12.204 69.1463 12.4484 68.853 12.9372C68.6023 13.3415 68.4783 13.8342 68.4783 14.4166C68.4783 14.9821 68.6037 15.467 68.853 15.8713C69.1557 16.3601 69.577 16.6045 70.121 16.6045C70.6543 16.6045 71.073 16.3562 71.3743 15.8583C71.633 15.4462 71.7623 14.9574 71.7623 14.3919Z" fill="white"/>
<path d="M83.6867 11.3345L81.7201 17.4627H80.4401L79.6254 14.8016C79.4187 14.1373 79.2507 13.4769 79.1201 12.8217H79.0947C78.9734 13.4951 78.8054 14.1542 78.5894 14.8016L77.7241 17.4627H76.4294L74.5801 11.3345H76.0161L76.7267 14.2478C76.8987 14.9368 77.0401 15.5933 77.1534 16.2147H77.1787C77.2827 15.7025 77.4547 15.0499 77.6974 14.2608L78.5894 11.3358H79.7281L80.5827 14.1984C80.7894 14.8965 80.9574 15.5686 81.0867 16.216H81.1254C81.2201 15.5855 81.3627 14.9134 81.5521 14.1984L82.3147 11.3358H83.6867V11.3345Z" fill="white"/>
<path d="M90.9302 17.4625H89.5329V13.9525C89.5329 12.8709 89.1116 12.3301 88.2662 12.3301C87.8516 12.3301 87.5169 12.4783 87.2569 12.776C86.9996 13.0737 86.8689 13.4247 86.8689 13.8264V17.4612H85.4716V13.0854C85.4716 12.5472 85.4542 11.9635 85.4209 11.3317H86.6489L86.7142 12.2898H86.7529C86.9156 11.9921 87.1582 11.7464 87.4769 11.5501C87.8556 11.3213 88.2796 11.2056 88.7436 11.2056C89.3302 11.2056 89.8182 11.3902 90.2062 11.7607C90.6889 12.2144 90.9302 12.8917 90.9302 13.7913V17.4625Z" fill="white"/>
<path d="M94.7837 17.4626H93.3877V8.52246H94.7837V17.4626Z" fill="white"/>
<path d="M103.01 14.3477C103.01 15.2902 102.734 16.0624 102.182 16.6682C101.604 17.2909 100.836 17.6016 99.8798 17.6016C98.9558 17.6016 98.2212 17.3039 97.6745 16.7059C97.1278 16.1092 96.8545 15.3565 96.8545 14.4491C96.8545 13.5001 97.1358 12.7214 97.7012 12.1169C98.2665 11.5124 99.0265 11.2095 99.9825 11.2095C100.906 11.2095 101.646 11.5072 102.209 12.1039C102.742 12.6837 103.01 13.4325 103.01 14.3477ZM101.56 14.3919C101.56 13.8264 101.434 13.3415 101.185 12.9372C100.893 12.4484 100.474 12.204 99.9332 12.204C99.3705 12.204 98.9438 12.4484 98.6518 12.9372C98.4012 13.3415 98.2772 13.8342 98.2772 14.4166C98.2772 14.9821 98.4025 15.467 98.6518 15.8713C98.9545 16.3601 99.3758 16.6045 99.9198 16.6045C100.453 16.6045 100.87 16.3562 101.172 15.8583C101.432 15.4462 101.56 14.9574 101.56 14.3919Z" fill="white"/>
<path d="M109.773 17.4625H108.519L108.415 16.7566H108.376C107.947 17.3195 107.335 17.6016 106.54 17.6016C105.947 17.6016 105.467 17.4157 105.105 17.0465C104.777 16.7111 104.613 16.2938 104.613 15.7985C104.613 15.0497 104.933 14.479 105.577 14.0838C106.22 13.6886 107.124 13.4949 108.288 13.504V13.3896C108.288 12.5823 107.853 12.1793 106.983 12.1793C106.363 12.1793 105.816 12.3314 105.344 12.633L105.06 11.7386C105.644 11.3863 106.365 11.2095 107.216 11.2095C108.859 11.2095 109.683 12.0545 109.683 13.7445V16.0013C109.683 16.6136 109.713 17.1011 109.773 17.4625ZM108.323 15.3565V14.4114C106.781 14.3854 106.011 14.7975 106.011 15.6464C106.011 15.9662 106.099 16.2054 106.279 16.3653C106.459 16.5252 106.688 16.6045 106.961 16.6045C107.268 16.6045 107.555 16.5096 107.816 16.3211C108.079 16.1313 108.24 15.8908 108.3 15.5957C108.315 15.5294 108.323 15.4488 108.323 15.3565Z" fill="white"/>
<path d="M117.713 17.4626H116.473L116.408 16.4785H116.369C115.973 17.2273 115.298 17.6017 114.35 17.6017C113.593 17.6017 112.962 17.3118 112.462 16.732C111.962 16.1522 111.713 15.3995 111.713 14.4752C111.713 13.4833 111.984 12.6799 112.528 12.0663C113.054 11.4943 113.7 11.2083 114.468 11.2083C115.312 11.2083 115.902 11.4852 116.238 12.0403H116.265V8.52246H117.664V15.8116C117.664 16.4083 117.68 16.9582 117.713 17.4626ZM116.265 14.8782V13.8564C116.265 13.6796 116.252 13.5366 116.226 13.4274C116.148 13.0998 115.978 12.8242 115.721 12.6019C115.461 12.3796 115.148 12.2678 114.786 12.2678C114.265 12.2678 113.857 12.4693 113.557 12.8736C113.26 13.2779 113.109 13.794 113.109 14.4245C113.109 15.0303 113.252 15.5217 113.538 15.9C113.841 16.303 114.249 16.5045 114.76 16.5045C115.218 16.5045 115.585 16.3368 115.864 16.0001C116.133 15.6894 116.265 15.315 116.265 14.8782Z" fill="white"/>
<path d="M129.664 14.3477C129.664 15.2902 129.388 16.0624 128.836 16.6682C128.257 17.2909 127.492 17.6016 126.533 17.6016C125.612 17.6016 124.877 17.3039 124.328 16.7059C123.781 16.1092 123.508 15.3565 123.508 14.4491C123.508 13.5001 123.789 12.7214 124.354 12.1169C124.92 11.5124 125.68 11.2095 126.638 11.2095C127.56 11.2095 128.302 11.5072 128.862 12.1039C129.396 12.6837 129.664 13.4325 129.664 14.3477ZM128.216 14.3919C128.216 13.8264 128.09 13.3415 127.841 12.9372C127.546 12.4484 127.13 12.204 126.586 12.204C126.026 12.204 125.6 12.4484 125.305 12.9372C125.054 13.3415 124.93 13.8342 124.93 14.4166C124.93 14.9821 125.056 15.467 125.305 15.8713C125.608 16.3601 126.029 16.6045 126.573 16.6045C127.106 16.6045 127.526 16.3562 127.828 15.8583C128.085 15.4462 128.216 14.9574 128.216 14.3919Z" fill="white"/>
<path d="M137.177 17.4625H135.781V13.9525C135.781 12.8709 135.36 12.3301 134.513 12.3301C134.098 12.3301 133.764 12.4783 133.505 12.776C133.246 13.0737 133.117 13.4247 133.117 13.8264V17.4612H131.718V13.0854C131.718 12.5472 131.702 11.9635 131.669 11.3317H132.896L132.961 12.2898H133C133.164 11.9921 133.406 11.7464 133.724 11.5501C134.104 11.3213 134.526 11.2056 134.992 11.2056C135.577 11.2056 136.065 11.3902 136.453 11.7607C136.937 12.2144 137.177 12.8917 137.177 13.7913V17.4625Z" fill="white"/>
<path d="M146.581 12.3548H145.042V15.3318C145.042 16.0884 145.316 16.4667 145.857 16.4667C146.108 16.4667 146.316 16.4459 146.48 16.403L146.516 17.4365C146.24 17.5379 145.877 17.5886 145.43 17.5886C144.878 17.5886 144.449 17.4248 144.138 17.0972C143.826 16.7696 143.672 16.2184 143.672 15.4449V12.3548H142.753V11.3343H143.672V10.2111L145.041 9.80811V11.333H146.58V12.3548H146.581Z" fill="white"/>
<path d="M153.978 17.4626H152.58V13.9786C152.58 12.8801 152.158 12.3302 151.314 12.3302C150.666 12.3302 150.224 12.6487 149.981 13.2857C149.94 13.4196 149.916 13.5834 149.916 13.7758V17.4613H148.52V8.52246H149.916V12.2158H149.942C150.382 11.5437 151.013 11.2083 151.83 11.2083C152.409 11.2083 152.888 11.3929 153.268 11.7634C153.741 12.2249 153.978 12.9113 153.978 13.8187V17.4626Z" fill="white"/>
<path d="M161.609 14.1085C161.609 14.3529 161.591 14.5583 161.557 14.726H157.367C157.385 15.3318 157.585 15.7933 157.973 16.1131C158.328 16.3991 158.785 16.5421 159.345 16.5421C159.965 16.5421 160.531 16.4459 161.04 16.2522L161.259 17.1986C160.663 17.4508 159.961 17.5769 159.149 17.5769C158.176 17.5769 157.409 17.2974 156.855 16.7384C156.297 16.1794 156.021 15.4293 156.021 14.4881C156.021 13.5638 156.279 12.7942 156.797 12.1806C157.339 11.5254 158.071 11.1978 158.995 11.1978C159.899 11.1978 160.585 11.5254 161.049 12.1806C161.424 12.7006 161.609 13.3441 161.609 14.1085ZM160.276 13.7562C160.287 13.3519 160.195 13.0035 160.005 12.7097C159.763 12.3314 159.393 12.1416 158.893 12.1416C158.437 12.1416 158.065 12.3262 157.781 12.6967C157.549 12.9918 157.412 13.3441 157.367 13.7562H160.276Z" fill="white"/>
<path d="M71.5269 40.9547H68.4989L66.8402 35.873H61.0749L59.4949 40.9547H56.5469L62.2589 23.6543H65.7869L71.5269 40.9547ZM66.3402 33.741L64.8402 29.2235C64.6815 28.762 64.3842 27.6752 63.9455 25.9644H63.8922C63.7175 26.7002 63.4362 27.787 63.0495 29.2235L61.5762 33.741H66.3402Z" fill="white"/>
<path d="M86.2159 34.5642C86.2159 36.6858 85.6279 38.3628 84.4519 39.5939C83.3985 40.6898 82.0905 41.2371 80.5292 41.2371C78.8439 41.2371 77.6332 40.6469 76.8959 39.4665H76.8425V46.038H73.9999V32.5869C73.9999 31.2531 73.9639 29.8842 73.8945 28.4802H76.3945L76.5532 30.4575H76.6065C77.5545 28.9677 78.9932 28.2241 80.9239 28.2241C82.4332 28.2241 83.6932 28.8052 84.7012 29.9687C85.7119 31.1335 86.2159 32.6649 86.2159 34.5642ZM83.3199 34.6656C83.3199 33.4514 83.0399 32.4504 82.4772 31.6626C81.8625 30.841 81.0372 30.4302 80.0025 30.4302C79.3012 30.4302 78.6639 30.659 78.0945 31.1101C77.5239 31.5651 77.1505 32.1592 76.9759 32.895C76.8879 33.2382 76.8439 33.519 76.8439 33.74V35.82C76.8439 36.7274 77.1292 37.4931 77.6999 38.1184C78.2705 38.7437 79.0119 39.0557 79.9239 39.0557C80.9945 39.0557 81.8279 38.6527 82.4239 37.8493C83.0212 37.0446 83.3199 35.9838 83.3199 34.6656Z" fill="white"/>
<path d="M100.932 34.5642C100.932 36.6858 100.344 38.3628 99.167 39.5939C98.115 40.6898 96.807 41.2371 95.2456 41.2371C93.5603 41.2371 92.3496 40.6469 91.6136 39.4665H91.5603V46.038H88.7176V32.5869C88.7176 31.2531 88.6816 29.8842 88.6123 28.4802H91.1123L91.271 30.4575H91.3243C92.271 28.9677 93.7096 28.2241 95.6416 28.2241C97.1496 28.2241 98.4096 28.8052 99.4203 29.9687C100.427 31.1335 100.932 32.6649 100.932 34.5642ZM98.0363 34.6656C98.0363 33.4514 97.755 32.4504 97.1923 31.6626C96.5776 30.841 95.755 30.4302 94.719 30.4302C94.0163 30.4302 93.3803 30.659 92.8096 31.1101C92.239 31.5651 91.867 32.1592 91.6923 32.895C91.6056 33.2382 91.5603 33.519 91.5603 33.74V35.82C91.5603 36.7274 91.8456 37.4931 92.4136 38.1184C92.9843 38.7424 93.7256 39.0557 94.6403 39.0557C95.711 39.0557 96.5443 38.6527 97.1403 37.8493C97.7376 37.0446 98.0363 35.9838 98.0363 34.6656Z" fill="white"/>
<path d="M117.386 36.1032C117.386 37.5748 116.862 38.7721 115.81 39.6964C114.654 40.7065 113.045 41.2109 110.977 41.2109C109.067 41.2109 107.537 40.8521 106.378 40.1332L107.037 37.8231C108.285 38.5589 109.654 38.9281 111.146 38.9281C112.217 38.9281 113.05 38.6915 113.649 38.2209C114.245 37.7503 114.542 37.1185 114.542 36.3307C114.542 35.6287 114.297 35.0372 113.805 34.5575C113.315 34.0778 112.498 33.6319 111.357 33.2198C108.25 32.0901 106.698 30.4352 106.698 28.259C106.698 26.8368 107.242 25.6707 108.331 24.7633C109.417 23.8546 110.865 23.4009 112.675 23.4009C114.29 23.4009 115.631 23.6752 116.702 24.2225L115.991 26.4819C114.991 25.9515 113.861 25.6863 112.595 25.6863C111.595 25.6863 110.814 25.9268 110.254 26.4052C109.781 26.8329 109.543 27.3542 109.543 27.9717C109.543 28.6555 109.814 29.221 110.358 29.6656C110.831 30.0764 111.691 30.521 112.939 31.0007C114.466 31.6 115.587 32.3007 116.309 33.1041C117.027 33.9049 117.386 34.9072 117.386 36.1032Z" fill="white"/>
<path d="M126.784 30.5599H123.651V36.6166C123.651 38.1571 124.203 38.9267 125.31 38.9267C125.818 38.9267 126.239 38.8838 126.572 38.798L126.651 40.9027C126.091 41.1068 125.354 41.2095 124.44 41.2095C123.318 41.2095 122.44 40.8754 121.807 40.2085C121.176 39.5403 120.859 38.4197 120.859 36.8454V30.5573H118.992V28.4773H120.859V26.1932L123.651 25.3716V28.4773H126.784V30.5599Z" fill="white"/>
<path d="M140.922 34.6146C140.922 36.5321 140.359 38.1064 139.236 39.3375C138.059 40.605 136.496 41.2368 134.548 41.2368C132.671 41.2368 131.176 40.6297 130.062 39.4155C128.947 38.2013 128.39 36.6686 128.39 34.8213C128.39 32.8882 128.963 31.3048 130.114 30.0737C131.262 28.8413 132.811 28.2251 134.759 28.2251C136.636 28.2251 138.147 28.8322 139.287 30.0477C140.378 31.2268 140.922 32.7491 140.922 34.6146ZM137.972 34.7043C137.972 33.5538 137.72 32.5671 137.21 31.7442C136.614 30.7484 135.762 30.2518 134.658 30.2518C133.515 30.2518 132.647 30.7497 132.051 31.7442C131.54 32.5684 131.288 33.5707 131.288 34.7563C131.288 35.9068 131.54 36.8935 132.051 37.7151C132.666 38.7109 133.524 39.2075 134.632 39.2075C135.718 39.2075 136.57 38.7005 137.184 37.6891C137.708 36.8506 137.972 35.8535 137.972 34.7043Z" fill="white"/>
<path d="M150.162 30.9177C149.88 30.867 149.58 30.841 149.266 30.841C148.266 30.841 147.492 31.2089 146.948 31.946C146.475 32.596 146.238 33.4176 146.238 34.4095V40.955H143.396L143.423 32.4088C143.423 30.971 143.387 29.6619 143.316 28.4815H145.792L145.896 30.8683H145.975C146.275 30.048 146.748 29.3876 147.396 28.8923C148.03 28.4464 148.714 28.2241 149.451 28.2241C149.714 28.2241 149.951 28.2423 150.162 28.2748V30.9177Z" fill="white"/>
<path d="M162.875 34.1274C162.875 34.624 162.841 35.0426 162.771 35.3845H154.243C154.276 36.6169 154.688 37.5594 155.48 38.2094C156.199 38.7905 157.128 39.0817 158.269 39.0817C159.532 39.0817 160.684 38.8854 161.72 38.4915L162.165 40.4155C160.955 40.9303 159.525 41.1864 157.876 41.1864C155.892 41.1864 154.335 40.617 153.201 39.4795C152.071 38.342 151.504 36.8145 151.504 34.8983C151.504 33.0172 152.031 31.4507 153.085 30.2014C154.189 28.8676 155.681 28.2007 157.559 28.2007C159.403 28.2007 160.799 28.8676 161.747 30.2014C162.497 31.2609 162.875 32.5713 162.875 34.1274ZM160.164 33.4085C160.183 32.5869 159.997 31.8771 159.612 31.2778C159.12 30.5069 158.364 30.1221 157.347 30.1221C156.417 30.1221 155.661 30.4978 155.084 31.2518C154.611 31.8511 154.329 32.57 154.243 33.4072H160.164V33.4085Z" fill="white"/>
<defs>
<linearGradient id="paint0_linear_200_258" x1="0.999999" y1="1" x2="90" y2="51.0187" gradientUnits="userSpaceOnUse">
<stop stop-color="#3D3F4F"/>
<stop offset="1" stop-color="#3D3F4F"/>
</linearGradient>
</defs>
</svg>
